PathFileType	4	(X/Y/Z)	Run_400 05
DataRate	CameraRate	NumFrames	NumMarkers	Units	OrigDataRate	OrigDataStartFrame	OrigNumFrames
120	120	5	42	mm	120	60	128
Frame#	Time	LASI			RASI			LPSI			RPSI			RTH1			RTH2			RTH3			LTH1			LTH2			LTH3			RTB1			RTB2			RTB3			LTB1			LTB2			LTB3			RCAL			RTOE			RMT5			LCAL			LTOE			LMT5			LACR			RACR			CLAV			C7			RUA1			RUA2			RUA3			RLEL			RMEL			LUA1			LUA2			LUA3			LLEL			LMEL			RFAsuperior			RFAradius			RFAulna			LFAsuperior			LFAradius			LFAulna		
		X1	Y1	Z1	X2	Y2	Z2	X3	Y3	Z3	X4	Y4	Z4	X5	Y5	Z5	X6	Y6	Z6	X7	Y7	Z7	X8	Y8	Z8	X9	Y9	Z9	X10	Y10	Z10	X11	Y11	Z11	X12	Y12	Z12	X13	Y13	Z13	X14	Y14	Z14	X15	Y15	Z15	X16	Y16	Z16	X17	Y17	Z17	X18	Y18	Z18	X19	Y19	Z19	X20	Y20	Z20	X21	Y21	Z21	X22	Y22	Z22	X23	Y23	Z23	X24	Y24	Z24	X25	Y25	Z25	X26	Y26	Z26	X27	Y27	Z27	X28	Y28	Z28	X29	Y29	Z29	X30	Y30	Z30	X31	Y31	Z31	X32	Y32	Z32	X33	Y33	Z33	X34	Y34	Z34	X35	Y35	Z35	X36	Y36	Z36	X37	Y37	Z37	X38	Y38	Z38	X39	Y39	Z39	X40	Y40	Z40	X41	Y41	Z41	X42	Y42	Z42	

60	  0.500000	958.032467	1085.037216	-422.515533	967.231394	1064.391043	-167.676531	785.113668	1113.744928	-336.555971	788.968540	1109.782251	-252.203874	874.528128	897.044203	-126.820251	889.691685	777.563089	-145.622180	789.418405	694.225294	-175.096023	945.556295	867.856247	-474.958580	1047.700692	777.875847	-465.131980	1028.429994	650.066852	-424.215272	655.236706	483.161697	-264.816253	583.574591	503.358996	-199.970110	529.911086	417.047762	-270.108715	1148.058462	442.545063	-354.235391	1131.064136	347.974426	-398.667164	1168.714424	244.255039	-326.128983	345.029796	595.068628	-274.812760	287.192951	373.194950	-319.039604	255.867959	434.398765	-229.503383	1089.580624	 91.913560	-293.243835	1318.515442	135.133795	-285.055031	1260.634065	 71.417236	-361.673296	939.172709	1539.297213	-470.638743	1009.753998	1547.817570	-141.189262	1020.893706	1489.615985	-282.059107	898.763365	1575.073696	-285.175778	998.054517	1452.804959	-57.764798	997.773140	1365.022857	-53.219879	932.219360	1365.570872	 -7.213023	920.713129	1230.975975	 45.639057	860.192091	1221.519733	-17.529836	880.378196	1480.043854	-540.291637	867.802703	1411.317961	-550.274398	775.705919	1428.319621	-518.582388	699.579025	1290.330804	-594.517831	672.926893	1282.494644	-514.490712	1013.153812	1237.599188	-13.825761	1096.534913	1277.329601	-167.099342	1127.034450	1222.109969	-128.465559	792.973328	1264.410401	-587.485931	948.925529	1236.795829	-498.986726	935.390858	1170.312476	-525.844477	
61	  0.508333	957.148994	1079.472612	-423.989963	966.533736	1055.880047	-168.011997	783.388844	1106.128897	-335.375318	787.787864	1100.890457	-251.364618	877.866846	888.120463	-127.231453	896.566649	769.619143	-144.645385	799.391054	683.367271	-174.939729	944.602895	862.552362	-473.332560	1045.989038	773.277088	-459.718173	1024.230062	643.847633	-423.852954	670.813056	478.837809	-262.473377	600.444841	504.128102	-197.691383	546.791429	417.877643	-267.813183	1139.755611	432.663713	-352.625667	1118.437866	338.594401	-395.835040	1152.309906	234.090227	-322.528463	365.917250	607.934356	-275.468077	298.545343	387.023023	-310.387473	271.016027	453.113514	-222.904899	1065.274999	 92.369544	-289.633526	1295.905659	115.547348	-280.226442	1233.429200	 60.372881	-359.524367	941.233052	1530.309793	-471.652561	1008.616369	1540.003639	-140.282320	1020.688489	1481.789832	-281.663403	898.401119	1568.153416	-286.082785	993.558214	1444.992617	-56.309362	990.855730	1357.147156	-51.441848	924.557967	1359.485741	 -6.809441	909.520926	1225.662019	 46.113950	850.390038	1217.152281	-18.200571	884.461731	1469.454983	-542.647095	872.821637	1400.335041	-551.945073	779.832333	1415.833420	-522.664954	707.748602	1276.467507	-599.207755	678.590256	1268.235329	-519.229300	1003.592929	1227.016996	-10.567689	1093.908595	1258.709725	-162.431686	1119.999309	1202.746557	-122.039506	801.454279	1251.396328	-591.328364	956.493548	1226.316008	-500.525628	943.974839	1159.663103	-527.009252	
62	  0.516667	955.470481	1073.254089	-424.887853	965.154716	1046.950646	-168.171602	780.783325	1098.171889	-333.991372	785.925495	1091.580531	-250.349845	880.910368	878.601305	-128.072470	903.092302	761.510282	-143.596135	809.499978	672.075526	-175.162483	943.356591	856.997419	-473.276670	1044.889748	766.956849	-455.647522	1021.155640	637.744871	-423.216946	687.523136	473.880835	-259.606864	618.564109	503.896536	-195.161546	564.928114	417.702310	-265.265279	1132.401492	424.500934	-350.177009	1106.535381	330.925408	-392.073434	1134.643741	226.033487	-317.201173	387.830104	618.249126	-276.456718	312.905936	398.339435	-300.999092	288.958978	469.258619	-215.979944	1038.218613	 94.091250	-286.128630	1270.490865	 98.122467	-274.721241	1203.835862	 53.727201	-357.765271	943.355138	1520.890914	-472.780456	1007.281297	1531.954627	-139.270269	1020.632830	1473.489603	-281.233440	897.923029	1560.944232	-287.185410	988.922781	1436.493125	-55.047198	983.499426	1348.667763	-50.113102	916.647263	1352.908276	 -6.623145	898.004725	1220.035064	 46.228262	840.686878	1212.284107	-19.343944	888.727072	1458.080925	-545.144244	878.197711	1388.543107	-553.825832	784.260850	1402.552448	-526.938998	716.662051	1261.760843	-604.052625	684.926907	1253.109879	-524.247843	993.622851	1215.960239	 -7.258024	1090.855444	1238.733107	-157.195626	1112.231534	1182.260225	-114.937442	810.598149	1237.600733	-595.373296	964.561415	1214.873049	-501.948703	953.065887	1148.138660	-528.087767	
63	  0.525000	952.521450	1066.635990	-425.391858	962.946166	1037.998263	-168.255727	777.187379	1090.297105	-332.532765	783.233373	1082.247577	-249.259878	883.776453	868.887595	-129.339097	909.341473	753.751648	-142.681875	820.008710	660.628719	-175.865158	941.290615	852.063890	-474.483827	1043.678640	760.195712	-454.446185	1019.875977	632.898187	-423.022585	705.503030	468.678972	-256.378077	637.949159	502.560198	-192.632941	584.338642	416.416329	-262.717453	1125.589266	419.336644	-346.912530	1095.874234	326.487317	-388.113482	1115.459601	221.464047	-311.138099	410.829125	625.966096	-277.399896	329.842360	407.183823	-291.328168	309.364401	482.600908	-208.940378	1008.562887	 96.126960	-283.223793	1242.068584	 86.065755	-269.383645	1172.553057	 51.608195	-356.049848	945.468244	1511.455989	-474.107624	1005.575431	1524.071658	-138.080364	1020.853507	1464.949297	-280.749216	897.457294	1553.771378	-288.587056	984.133901	1427.515297	-54.017792	975.760132	1339.745409	-49.353939	908.619084	1346.005859	 -6.650417	886.186703	1214.258293	 45.874862	831.091204	1207.054998	-21.009861	893.180557	1445.939510	-547.749215	883.893363	1376.053171	-555.561900	788.996393	1388.487031	-531.388311	726.324402	1246.409290	-608.969681	692.438905	1237.255261	-529.547555	983.253868	1204.473916	 -3.941178	1087.126099	1217.292204	-151.359864	1103.553406	1160.693903	-107.170671	820.261692	1223.040811	-599.467795	973.054425	1202.463124	-503.040003	962.657150	1135.778119	-529.048914	
64	  0.533333	948.356905	1059.982822	-425.940501	959.910891	1029.483001	-168.324748	772.883595	1082.836990	-331.000829	779.714305	1073.351764	-248.154395	886.610438	859.665664	-130.722274	915.568080	746.929149	-142.036604	831.162765	649.618267	-176.910311	937.969502	848.131744	-476.039343	1041.524834	754.822050	-456.105045	1020.203351	630.076199	-424.188738	724.930431	463.724534	-253.278602	658.630667	500.221631	-190.346464	605.048722	414.125496	-260.411570	1118.267587	417.030981	-343.589950	1085.772347	325.461396	-385.116404	1094.851276	220.327074	-306.288828	434.640222	631.151182	-277.951384	349.106669	413.505053	-281.917658	332.006827	492.709998	-201.968310	977.059115	 97.976033	-281.371148	1211.162950	 80.023315	-265.249360	1140.246875	 52.284955	-354.420001	947.456915	1502.429334	-475.641979	1003.298805	1516.746456	-136.704057	1021.327302	1456.532027	-280.149289	897.204481	1547.050386	-290.299199	979.212742	1418.403376	-53.245605	967.705115	1330.660482	-49.280404	900.588892	1339.032455	 -6.933459	874.109319	1208.552147	 44.919847	821.401110	1201.737438	-23.242600	897.955660	1433.187074	-550.422695	889.902363	1363.030844	-556.807461	794.101627	1373.730143	-536.093958	736.798646	1230.675917	-613.892514	701.424234	1220.905481	-535.057557	972.419192	1192.564276	 -0.703056	1082.340778	1194.311824	-144.912888	1093.754861	1138.230649	-98.716596	830.333039	1207.693272	-603.329703	981.966378	1189.222779	-503.563625	972.782073	1122.706954	-529.771339	
